Gypsy Creek's # 1 cop, Charles Gravytrain believes in three things: Truth, Justice, and slapping the no good crook Jimmy Fish Eye's in the slammer for life! And with the help of his foxy new partner, big city cop Miss Uma Booma, he may do just that. But in a town that has more stinky secrets and slippery surprises than a tin of rotten sardines the only question remains...Where's the Fish?!

Video
ID : 0
Format : MPEG-4 Visual
Format profile : Advanced Simple@L5
Format settings, BVOP : Yes
Format settings, QPel : No
Format settings, GMC : No warppoints
Format settings, Matrix : Default (H.263)
Muxing mode : Packed bitstream
Codec ID : XVID
Codec ID/Hint : XviD
Duration : 1h 23mn
Bit rate : 1 054 Kbps
Width : 720 pixels
Height : 384 pixels
Display aspect ratio : 1.875
Frame rate : 23.976 fps
Color space : YUV
Chroma subsampling : 4:2:0
Bit depth : 8 bits
Scan type : Progressive
Bits/(Pixel*Frame) : 0.159
Stream size : 631 MiB (90%)
Writing library : XviD 57

Audio
ID : 1
Format : MPEG Audio
Format version : Version 1
Format profile : Layer 3
Mode : Joint stereo
Mode extension : MS Stereo
Codec ID : 55
Codec ID/Hint : MP3
Duration : 1h 23mn
Bit rate mode : Variable
Bit rate : 102 Kbps
Nominal bit rate : 112 Kbps
Channel(s) : 2 channels
Sampling rate : 48.0 KHz
Stream size : 60.9 MiB (9%)
Alignment : Aligned on interleaves
Interleave, duration : 24 ms (0.58 video frame)
Interleave, preload duration : 181 ms
Writing library : LAME3.97 
Encoding settings : -m j -V 4 -q 2 -lowpass 16 --abr 112

Screens:
 
http://leetleech.org/images/70378483343417082049.jpg